<svg width="39" height="27" viewBox="0 0 39 27" fill="none" xmlns="http://www.w3.org/2000/svg">
<path d="M16.7208 2.01038L17.7271 2.304C18.9577 2.66364 20.0794 3.36543 20.9805 4.33939C21.8816 5.31335 22.5305 6.52543 22.8625 7.85475L23.1333 8.94038L21.1229 9.5265L20.8511 8.44088C20.6138 7.49134 20.1502 6.62559 19.5065 5.92996C18.8627 5.23433 18.0614 4.73313 17.1823 4.47638L16.1771 4.18163L16.7208 2.01038ZM1.04168 2.25H9.97918L11.5281 9.77625L9.59064 11.8688C10.7293 13.784 12.2368 15.4117 14.0104 16.641L15.9479 14.5496L22.9167 16.2225V25.875H21.875C17.865 25.8817 13.9392 24.6328 10.5729 22.2795C8.09091 20.5447 5.97719 18.2618 4.37085 15.5813C2.19189 11.9456 1.0355 7.70578 1.04168 3.375V2.25ZM3.15314 4.5C3.32838 8.00996 4.35155 11.4092 6.12085 14.3595C7.56707 16.7725 9.46989 18.8276 11.7042 20.3895C14.4359 22.3004 17.5834 23.4055 20.8333 23.5946V18.027L16.6115 17.0145L14.3469 19.4614L13.6563 19.0373C11.0341 17.4278 8.8632 15.0832 7.37293 12.2513L6.98022 11.5054L9.24585 9.05963L8.30835 4.5H3.15314ZM15.7688 5.81063L16.775 6.10425C17.3903 6.28407 17.9512 6.63497 18.4017 7.12195C18.8523 7.60893 19.1767 8.21497 19.3427 8.87963L19.6136 9.96525L17.6031 10.5514L17.3313 9.46575C17.26 9.18088 17.1209 8.92116 16.9277 8.71251C16.7345 8.50386 16.494 8.35357 16.2302 8.27663L15.225 7.983L15.7688 5.81063Z" fill="black"/>
</svg>
