<svg width="39" height="39" viewBox="0 0 39 39" fill="none" xmlns="http://www.w3.org/2000/svg">
<path d="M29.8594 0H9.14062C4.0924 0 0 4.0924 0 9.14062V29.8594C0 34.9076 4.0924 39 9.14062 39H29.8594C34.9076 39 39 34.9076 39 29.8594V9.14062C39 4.0924 34.9076 0 29.8594 0Z" fill="url(#paint0_radial_2_60)"/>
<path d="M29.8594 0H9.14062C4.0924 0 0 4.0924 0 9.14062V29.8594C0 34.9076 4.0924 39 9.14062 39H29.8594C34.9076 39 39 34.9076 39 29.8594V9.14062C39 4.0924 34.9076 0 29.8594 0Z" fill="url(#paint1_radial_2_60)"/>
<path d="M19.5014 4.26562C15.364 4.26562 14.8447 4.28375 13.2198 4.35764C11.5979 4.43198 10.4908 4.68868 9.52225 5.06543C8.52013 5.45452 7.6702 5.97507 6.82348 6.8221C5.97599 7.66898 5.45543 8.51891 5.06513 9.52057C4.68731 10.4895 4.43031 11.597 4.35734 13.2181C4.28467 14.8432 4.26562 15.3626 4.26562 19.5002C4.26562 23.6377 4.28391 24.1553 4.35764 25.7802C4.43229 27.4021 4.68899 28.5091 5.06543 29.4777C5.45482 30.4799 5.97538 31.3298 6.82241 32.1765C7.66898 33.024 8.51891 33.5458 9.52027 33.9349C10.4896 34.3116 11.5969 34.5683 13.2184 34.6427C14.8435 34.7165 15.3623 34.7347 19.4995 34.7347C23.6374 34.7347 24.155 34.7165 25.7799 34.6427C27.4018 34.5683 28.5101 34.3116 29.4794 33.9349C30.4811 33.5458 31.3298 33.024 32.1762 32.1765C33.0237 31.3298 33.5441 30.4799 33.9346 29.4782C34.309 28.5091 34.5662 27.4018 34.6424 25.7805C34.7153 24.1556 34.7344 23.6377 34.7344 19.5002C34.7344 15.3626 34.7153 14.8435 34.6424 13.2184C34.5662 11.5966 34.309 10.4896 33.9346 9.52103C33.5441 8.51891 33.0237 7.66898 32.1762 6.8221C31.3289 5.97477 30.4814 5.45421 29.4785 5.06558C28.5073 4.68868 27.3996 4.43183 25.7778 4.35764C24.1527 4.28375 23.6354 4.26562 19.4966 4.26562H19.5014ZM18.1347 7.01101C18.5404 7.0104 18.993 7.01101 19.5014 7.01101C23.5691 7.01101 24.0511 7.02564 25.6574 7.09861C27.1428 7.16655 27.949 7.41472 28.486 7.62328C29.197 7.89933 29.7038 8.22946 30.2367 8.76281C30.7699 9.29601 31.0999 9.80378 31.3767 10.5148C31.5853 11.051 31.8338 11.8572 31.9014 13.3426C31.9744 14.9486 31.9902 15.4309 31.9902 19.4966C31.9902 23.5624 31.9744 24.0449 31.9014 25.6507C31.8334 27.1361 31.5853 27.9423 31.3767 28.4787C31.1007 29.1897 30.7699 29.6959 30.2367 30.2288C29.7035 30.762 29.1973 31.092 28.486 31.3682C27.9496 31.5777 27.1428 31.8252 25.6574 31.8932C24.0514 31.9661 23.5691 31.982 19.5014 31.982C15.4335 31.982 14.9513 31.9661 13.3455 31.8932C11.8601 31.8246 11.0539 31.5764 10.5164 31.3679C9.80561 31.0917 9.29769 30.7617 8.76449 30.2285C8.23128 29.6953 7.90131 29.1888 7.6245 28.4775C7.41594 27.9411 7.16747 27.1349 7.09983 25.6495C7.02686 24.0435 7.01223 23.5612 7.01223 19.4928C7.01223 15.4247 7.02686 14.9448 7.09983 13.3388C7.16777 11.8534 7.41594 11.0472 7.6245 10.5102C7.9007 9.79921 8.23129 9.29144 8.76464 8.75824C9.29784 8.22504 9.80561 7.89491 10.5166 7.61825C11.0536 7.40878 11.8601 7.16122 13.3455 7.09297C14.7508 7.02944 15.2955 7.0104 18.1347 7.0072V7.01101ZM27.6335 9.54053C26.6242 9.54053 25.8054 10.3586 25.8054 11.368C25.8054 12.3773 26.6242 13.1962 27.6335 13.1962C28.6428 13.1962 29.4616 12.3773 29.4616 11.368C29.4616 10.3588 28.6428 9.53992 27.6335 9.53992V9.54053ZM19.5014 11.6765C15.1809 11.6765 11.6779 15.1795 11.6779 19.5002C11.6779 23.8208 15.1809 27.3221 19.5014 27.3221C23.822 27.3221 27.3238 23.8208 27.3238 19.5002C27.3238 15.1797 23.8217 11.6765 19.5011 11.6765H19.5014ZM19.5014 14.4219C22.3059 14.4219 24.5796 16.6954 24.5796 19.5002C24.5796 22.3046 22.3059 24.5784 19.5014 24.5784C16.6967 24.5784 14.4233 22.3046 14.4233 19.5002C14.4233 16.6954 16.6967 14.4219 19.5014 14.4219Z" fill="white"/>
<defs>
<radialGradient id="paint0_radial_2_60" cx="0" cy="0" r="1" gradientUnits="userSpaceOnUse" gradientTransform="translate(10.3594 42.0038) rotate(-90) scale(38.6519 35.9493)">
<stop stop-color="#FFDD55"/>
<stop offset="0.1" stop-color="#FFDD55"/>
<stop offset="0.5" stop-color="#FF543E"/>
<stop offset="1" stop-color="#C837AB"/>
</radialGradient>
<radialGradient id="paint1_radial_2_60" cx="0" cy="0" r="1" gradientUnits="userSpaceOnUse" gradientTransform="translate(-6.53265 2.80937) rotate(78.681) scale(17.2776 71.2189)">
<stop stop-color="#3771C8"/>
<stop offset="0.128" stop-color="#3771C8"/>
<stop offset="1" stop-color="#6600FF" stop-opacity="0"/>
</radialGradient>
</defs>
</svg>
