<svg width="259" height="60" viewBox="0 0 259 60" fill="none" xmlns="http://www.w3.org/2000/svg">
<path d="M28.1006 8.33856L27.0839 4.74592L26.0672 8.33856L21.4293 24.7272L6.51564 24.7272H3.59946L5.8388 26.5953L18.0241 36.76L13.3553 53.2577L12.4248 56.5457L15.0489 54.3568L27.0839 44.3174L39.1189 54.3568L41.7429 56.5457L40.8125 53.2577L36.1437 36.76L48.329 26.5953L50.5683 24.7272H47.6521L32.7385 24.7272L28.1006 8.33856Z" fill="#FAD306"/>
<path d="M28.1006 8.33856L27.0839 4.74592L26.0672 8.33856L21.4293 24.7272L6.51564 24.7272H3.59946L5.8388 26.5953L18.0241 36.76L13.3553 53.2577L12.4248 56.5457L15.0489 54.3568L27.0839 44.3174L39.1189 54.3568L41.7429 56.5457L40.8125 53.2577L36.1437 36.76L48.329 26.5953L50.5683 24.7272H47.6521L32.7385 24.7272L28.1006 8.33856Z" stroke="#FAD306" stroke-width="2.11325"/>
<path d="M28.1006 8.33856L27.0839 4.74592L26.0672 8.33856L21.4293 24.7272L6.51564 24.7272H3.59946L5.8388 26.5953L18.0241 36.76L13.3553 53.2577L12.4248 56.5457L15.0489 54.3568L27.0839 44.3174L39.1189 54.3568L41.7429 56.5457L40.8125 53.2577L36.1437 36.76L48.329 26.5953L50.5683 24.7272H47.6521L32.7385 24.7272L28.1006 8.33856Z" stroke="black" stroke-opacity="0.2" stroke-width="2.11325"/>
<path d="M233.154 8.33856L232.137 4.74592L231.121 8.33856L226.483 24.7272L211.569 24.7272H208.653L210.892 26.5953L223.078 36.76L218.409 53.2577L217.478 56.5457L220.102 54.3568L232.137 44.3174L244.173 54.3568L246.797 56.5457L245.866 53.2577L241.197 36.76L253.383 26.5953L255.622 24.7272H252.706L237.792 24.7272L233.154 8.33856Z" stroke="#FAD306" stroke-width="2.11325"/>
<path d="M233.154 8.33856L232.137 4.74592L231.121 8.33856L226.483 24.7272L211.569 24.7272H208.653L210.892 26.5953L223.078 36.76L218.409 53.2577L217.478 56.5457L220.102 54.3568L232.137 44.3174L244.173 54.3568L246.797 56.5457L245.866 53.2577L241.197 36.76L253.383 26.5953L255.622 24.7272H252.706L237.792 24.7272L233.154 8.33856Z" stroke="#F2DEDE" stroke-opacity="0.2" stroke-width="2.11325"/>
<path d="M181.891 8.33856L180.874 4.74592L179.857 8.33856L175.219 24.7272L160.306 24.7272H157.389L159.629 26.5953L171.814 36.76L167.145 53.2577L166.215 56.5457L168.839 54.3568L180.874 44.3174L192.909 54.3568L195.533 56.5457L194.602 53.2577L189.934 36.76L202.119 26.5953L204.358 24.7272H201.442L186.529 24.7272L181.891 8.33856Z" fill="#FAD306"/>
<path d="M181.891 8.33856L180.874 4.74592L179.857 8.33856L175.219 24.7272L160.306 24.7272H157.389L159.629 26.5953L171.814 36.76L167.145 53.2577L166.215 56.5457L168.839 54.3568L180.874 44.3174L192.909 54.3568L195.533 56.5457L194.602 53.2577L189.934 36.76L202.119 26.5953L204.358 24.7272H201.442L186.529 24.7272L181.891 8.33856Z" stroke="#FAD306" stroke-width="2.11325"/>
<path d="M181.891 8.33856L180.874 4.74592L179.857 8.33856L175.219 24.7272L160.306 24.7272H157.389L159.629 26.5953L171.814 36.76L167.145 53.2577L166.215 56.5457L168.839 54.3568L180.874 44.3174L192.909 54.3568L195.533 56.5457L194.602 53.2577L189.934 36.76L202.119 26.5953L204.358 24.7272H201.442L186.529 24.7272L181.891 8.33856Z" stroke="black" stroke-opacity="0.2" stroke-width="2.11325"/>
<path d="M130.627 8.33856L129.611 4.74592L128.594 8.33856L123.956 24.7272L109.042 24.7272H106.126L108.366 26.5953L120.551 36.76L115.882 53.2577L114.952 56.5457L117.576 54.3568L129.611 44.3174L141.646 54.3568L144.27 56.5457L143.339 53.2577L138.67 36.76L150.856 26.5953L153.095 24.7272H150.179L135.265 24.7272L130.627 8.33856Z" fill="#FAD306"/>
<path d="M130.627 8.33856L129.611 4.74592L128.594 8.33856L123.956 24.7272L109.042 24.7272H106.126L108.366 26.5953L120.551 36.76L115.882 53.2577L114.952 56.5457L117.576 54.3568L129.611 44.3174L141.646 54.3568L144.27 56.5457L143.339 53.2577L138.67 36.76L150.856 26.5953L153.095 24.7272H150.179L135.265 24.7272L130.627 8.33856Z" stroke="#FAD306" stroke-width="2.11325"/>
<path d="M130.627 8.33856L129.611 4.74592L128.594 8.33856L123.956 24.7272L109.042 24.7272H106.126L108.366 26.5953L120.551 36.76L115.882 53.2577L114.952 56.5457L117.576 54.3568L129.611 44.3174L141.646 54.3568L144.27 56.5457L143.339 53.2577L138.67 36.76L150.856 26.5953L153.095 24.7272H150.179L135.265 24.7272L130.627 8.33856Z" stroke="black" stroke-opacity="0.2" stroke-width="2.11325"/>
<path d="M79.364 8.33856L78.3473 4.74592L77.3306 8.33856L72.6926 24.7272L57.779 24.7272H54.8628L57.1022 26.5953L69.2875 36.76L64.6187 53.2577L63.6882 56.5457L66.3122 54.3568L78.3473 44.3174L90.3823 54.3568L93.0063 56.5457L92.0758 53.2577L87.4071 36.76L99.5923 26.5953L101.832 24.7272H98.9155L84.0019 24.7272L79.364 8.33856Z" fill="#FAD306"/>
<path d="M79.364 8.33856L78.3473 4.74592L77.3306 8.33856L72.6926 24.7272L57.779 24.7272H54.8628L57.1022 26.5953L69.2875 36.76L64.6187 53.2577L63.6882 56.5457L66.3122 54.3568L78.3473 44.3174L90.3823 54.3568L93.0063 56.5457L92.0758 53.2577L87.4071 36.76L99.5923 26.5953L101.832 24.7272H98.9155L84.0019 24.7272L79.364 8.33856Z" stroke="#FAD306" stroke-width="2.11325"/>
<path d="M79.364 8.33856L78.3473 4.74592L77.3306 8.33856L72.6926 24.7272L57.779 24.7272H54.8628L57.1022 26.5953L69.2875 36.76L64.6187 53.2577L63.6882 56.5457L66.3122 54.3568L78.3473 44.3174L90.3823 54.3568L93.0063 56.5457L92.0758 53.2577L87.4071 36.76L99.5923 26.5953L101.832 24.7272H98.9155L84.0019 24.7272L79.364 8.33856Z" stroke="black" stroke-opacity="0.2" stroke-width="2.11325"/>
</svg>
