<svg width="33" height="25" viewBox="0 0 33 25" fill="none" xmlns="http://www.w3.org/2000/svg">
<g clip-path="url(#clip0_2_67)">
<path d="M7.50002 24.7564V12.0063L3.54582 8.38881L0 6.38135V22.5064C0 23.7513 1.00869 24.7564 2.25006 24.7564H7.50002Z" fill="#4285F4"/>
<path d="M25.5 24.7565H30.7499C31.995 24.7565 33 23.7476 33 22.5064V6.38153L28.9838 8.68083L25.5 12.0064V24.7565Z" fill="#34A853"/>
<path d="M7.50003 12.0063L6.96198 7.02446L7.50003 2.25635L16.5 9.00639L25.5 2.25635L26.1018 6.76703L25.5 12.0063L16.5 18.7563L7.50003 12.0063Z" fill="#EA4335"/>
<path d="M25.5 2.2564V12.0063L33 6.3814V3.38136C33 0.59892 29.8237 -0.987272 27.6001 0.681419L25.5 2.2564Z" fill="#FBBC04"/>
<path d="M0 6.38139L3.4494 8.96854L7.50002 12.0063V2.25639L5.39988 0.681418C3.17238 -0.987403 0 0.598918 0 3.38123V6.38126V6.38139Z" fill="#C5221F"/>
</g>
<defs>
<clipPath id="clip0_2_67">
<rect width="33" height="24.8789" fill="white"/>
</clipPath>
</defs>
</svg>
