<svg width="115" height="114" viewBox="0 0 115 114" fill="none" xmlns="http://www.w3.org/2000/svg">
<path d="M17.701 97.9994C12.2569 92.7414 7.91452 86.4517 4.92721 79.4975C1.9399 72.5433 0.36748 65.0637 0.301713 57.4953C0.235945 49.9269 1.67814 42.4211 4.54415 35.416C7.41016 28.411 11.6426 22.0468 16.9945 16.6949C22.3464 11.343 28.7105 7.1106 35.7156 4.24459C42.7207 1.37858 50.2264 -0.0636154 57.7949 0.00215214C65.3633 0.0679197 72.8428 1.64033 79.797 4.62765C86.7513 7.61496 93.0409 11.9573 98.299 17.4014C108.682 28.1518 114.427 42.5501 114.297 57.4953C114.168 72.4405 108.173 86.7368 97.6046 97.3051C87.0364 107.873 72.7401 113.868 57.7949 113.998C42.8496 114.128 28.4513 108.382 17.701 97.9994ZM90.262 89.9624C98.8184 81.406 103.625 69.801 103.625 57.7004C103.625 45.5998 98.8184 33.9948 90.262 25.4384C81.7056 16.882 70.1006 12.0751 58 12.0751C45.8994 12.0751 34.2944 16.882 25.738 25.4384C17.1816 33.9948 12.3746 45.5998 12.3746 57.7004C12.3746 69.801 17.1816 81.406 25.738 89.9624C34.2944 98.5188 45.8994 103.326 58 103.326C70.1006 103.326 81.7056 98.5188 90.262 89.9624ZM39.19 53.6534L52.3 66.8204L76.81 42.3104L84.79 50.4044L52.3 82.7804L31.21 61.6904L39.19 53.5964V53.6534Z" fill="black"/>
</svg>
